<?xml version="1.0" standalone="no"?><!DOCTYPE svg PUBLIC "-//W3C//DTD SVG 1.1//EN" "http://www.w3.org/Graphics/SVG/1.1/DTD/svg11.dtd"><svg t="1686018680651" class="icon" viewBox="0 0 1024 1024" version="1.1" xmlns="http://www.w3.org/2000/svg" p-id="1959" xmlns:xlink="http://www.w3.org/1999/xlink" width="200" height="200"><path d="M1024 0v853.333333a171.221333 171.221333 0 0 1-162.176 170.453334L853.333333 1024H0L1024 0z m-175.616 516.48l-3.584 4.053333-192 238.933334-72.533333-72.533334c-17.066667-17.066667-51.2-17.066667-68.266667 0-15.786667 15.786667-16.981333 46.08-3.626667 64.042667L512 755.2l123.733333 123.733333 2.474667 2.474667 1.792 1.792c11.733333 11.733333 30.634667 9.130667 43.562667-1.28l3.370666-2.986667 238.933334-294.4c12.8-25.6 8.533333-55.466667-12.8-72.533333-19.925333-15.914667-47.274667-13.269333-64.682667 4.48z" fill="#ff9854" p-id="1960"></path></svg>