<?xml version="1.0" standalone="no"?><!DOCTYPE svg PUBLIC "-//W3C//DTD SVG 1.1//EN" "http://www.w3.org/Graphics/SVG/1.1/DTD/svg11.dtd"><svg t="1726283748443" class="icon" viewBox="0 0 1024 1024" version="1.1" xmlns="http://www.w3.org/2000/svg" p-id="1368" xmlns:xlink="http://www.w3.org/1999/xlink" width="64" height="64"><path d="M512 192a320 320 0 1 1 0 640A320 320 0 0 1 512 192z m0 64a256 256 0 1 0 0 512 256 256 0 0 0 0-512z m132.544 321.152a29.248 29.248 0 0 1-2.688 43.776 191.104 191.104 0 0 1-19.264 13.44 224.32 224.32 0 0 1-236.544-5.568 152.64 152.64 0 0 1-10.56-7.936 29.44 29.44 0 0 1-4.608-41.28l2.176-2.432a35.456 35.456 0 0 1 45.888-3.648c2.88 2.176 5.568 3.904 7.872 5.312 49.6 29.632 111.68 30.08 161.6 1.408 2.368-1.408 5.568-3.584 9.6-6.528a35.776 35.776 0 0 1 46.528 3.456z" fill="#FF7960" p-id="1369"></path></svg>