<?xml version="1.0" standalone="no"?><!DOCTYPE svg PUBLIC "-//W3C//DTD SVG 1.1//EN" "http://www.w3.org/Graphics/SVG/1.1/DTD/svg11.dtd"><svg t="1726811760548" class="icon" viewBox="0 0 1024 1024" version="1.1" xmlns="http://www.w3.org/2000/svg" p-id="1236" xmlns:xlink="http://www.w3.org/1999/xlink" width="64" height="64"><path d="M512 65.654613a197.266644 197.266644 0 0 1 140.404191 58.160189 197.245015 197.245015 0 0 1 58.160189 140.404191 197.266644 197.266644 0 0 1-58.160189 140.382562 197.266644 197.266644 0 0 1-140.404191 58.160189 197.266644 197.266644 0 0 1-140.404191-58.160189 197.266644 197.266644 0 0 1-58.160189-140.404191 197.245015 197.245015 0 0 1 58.160189-140.404191 197.266644 197.266644 0 0 1 140.404191-58.13856m0-65.632984c-145.908753 0-264.197364 118.288611-264.197364 264.197364S366.091247 528.394728 512 528.394728s264.197364-118.288611 264.197364-264.197364S657.908753 0 512 0z" p-id="1237"></path><path d="M410.344035 314.668469m31.361947 0l140.588036 0q31.361947 0 31.361947 31.361947l0 0q0 31.361947-31.361947 31.361946l-140.588036 0q-31.361947 0-31.361947-31.361946l0 0q0-31.361947 31.361947-31.361947Z" p-id="1238"></path></svg>