<?xml version="1.0" standalone="no"?><!DOCTYPE svg PUBLIC "-//W3C//DTD SVG 1.1//EN" "http://www.w3.org/Graphics/SVG/1.1/DTD/svg11.dtd"><svg t="1726812078605" class="icon" viewBox="0 0 1024 1024" version="1.1" xmlns="http://www.w3.org/2000/svg" p-id="1524" xmlns:xlink="http://www.w3.org/1999/xlink" width="64" height="64"><path d="M512 989.090909c263.447273 0 477.090909-213.643636 477.090909-477.090909S775.447273 34.909091 512 34.909091 34.909091 248.552727 34.909091 512 248.552727 989.090909 512 989.090909z m0-69.818182a407.272727 407.272727 0 1 1 0-814.545454 407.272727 407.272727 0 0 1 0 814.545454z" fill="#333333" p-id="1525"></path><path d="M301.149091 676.305455c68.096 68.142545 138.519273 103.330909 210.850909 103.330909 72.331636 0 142.754909-35.188364 210.850909-103.330909l-49.338182-49.338182c-56.040727 55.994182-109.754182 82.850909-161.512727 82.850909s-105.472-26.856727-161.512727-82.850909l-49.338182 49.338182z" fill="#333333" p-id="1526"></path></svg>