<?xml version="1.0" standalone="no"?><!DOCTYPE svg PUBLIC "-//W3C//DTD SVG 1.1//EN" "http://www.w3.org/Graphics/SVG/1.1/DTD/svg11.dtd"><svg t="1685959044035" class="icon" viewBox="0 0 1024 1024" version="1.1" xmlns="http://www.w3.org/2000/svg" p-id="7796" xmlns:xlink="http://www.w3.org/1999/xlink" width="200" height="200"><path d="M512 512m-448.2 0a448.2 448.2 0 1 0 896.4 0 448.2 448.2 0 1 0-896.4 0Z" fill="#53D39C" p-id="7797"></path><path d="M559.6 331.2L436 386.7c-2.2 1-4.1 2.4-5.6 4.2H365c-20.9 0-37.9 17-37.9 37.9V528c0 20.9 17 37.9 37.9 37.9h65.3c1.5 1.8 3.4 3.2 5.6 4.3l123.6 56.7c10.5 4.8 22.5-2.9 22.5-14.4V345.8c0-11.6-11.9-19.3-22.4-14.6z" fill="#25BF79" p-id="7798"></path><path d="M381.3 582.1l33.2 128.1h53.1l-33.2-128.1zM689.8 448.9h-53.1c-10.5 0-19.1 8.5-19.1 19.1v2.5c0 10.5 8.5 19.1 19.1 19.1h53.1c10.5 0 19.1-8.5 19.1-19.1V468c0-10.5-8.5-19.1-19.1-19.1zM631.2 404.6c7.8 7.8 20.5 7.8 28.4 0l36.1-36.1c7.8-7.8 7.8-20.5 0-28.4l-0.4-0.4c-7.8-7.8-20.5-7.8-28.4 0l-36.1 36.1c-7.8 7.8-7.8 20.5 0 28.4l0.4 0.4zM659.6 529.7c-7.8-7.8-20.5-7.8-28.4 0l-0.4 0.4c-7.8 7.8-7.8 20.5 0 28.4l36.1 36.1c7.8 7.8 20.5 7.8 28.4 0l0.4-0.4c7.8-7.8 7.8-20.5 0-28.4l-36.1-36.1z" fill="#25BF79" p-id="7799"></path><path d="M553.6 323.2L430 378.7c-2.2 1-4.1 2.4-5.6 4.2H359c-20.9 0-37.9 17-37.9 37.9V520c0 20.9 17 37.9 37.9 37.9h65.3c1.5 1.8 3.4 3.2 5.6 4.3l123.6 56.7c10.5 4.8 22.5-2.9 22.5-14.4V337.8c0-11.6-11.9-19.3-22.4-14.6z" fill="#FFFFFF" p-id="7800"></path><path d="M375.3 574.1l33.2 128.1h53.1l-33.2-128.1zM683.8 440.9h-53.1c-10.5 0-19.1 8.5-19.1 19.1v2.5c0 10.5 8.5 19.1 19.1 19.1h53.1c10.5 0 19.1-8.5 19.1-19.1V460c0-10.5-8.5-19.1-19.1-19.1zM625.2 396.6c7.8 7.8 20.5 7.8 28.4 0l36.1-36.1c7.8-7.8 7.8-20.5 0-28.4l-0.4-0.4c-7.8-7.8-20.5-7.8-28.4 0l-36.1 36.1c-7.8 7.8-7.8 20.5 0 28.4l0.4 0.4zM653.6 521.7c-7.8-7.8-20.5-7.8-28.4 0l-0.4 0.4c-7.8 7.8-7.8 20.5 0 28.4l36.1 36.1c7.8 7.8 20.5 7.8 28.4 0l0.4-0.4c7.8-7.8 7.8-20.5 0-28.4l-36.1-36.1z" fill="#FFFFFF" p-id="7801"></path></svg>