<?xml version="1.0" standalone="no"?><!DOCTYPE svg PUBLIC "-//W3C//DTD SVG 1.1//EN" "http://www.w3.org/Graphics/SVG/1.1/DTD/svg11.dtd"><svg t="1726811808618" class="icon" viewBox="0 0 1024 1024" version="1.1" xmlns="http://www.w3.org/2000/svg" p-id="1548" xmlns:xlink="http://www.w3.org/1999/xlink" width="64" height="64"><path d="M763.6992 481.097956a28.376178 28.376178 0 0 1-28.444444-28.444445v-170.666667a225.120711 225.120711 0 1 0-450.241423 0v170.484623a28.444444 28.444444 0 1 1-56.888889 0v-170.439111a282.032356 282.032356 0 0 1 564.041956 0v170.484622a28.558222 28.558222 0 0 1-28.4672 28.580978z" fill="#FFF082" p-id="1549"></path><path d="M85.265067 160.449422h122.379377v151.984356H85.265067z m729.179022 0h122.379378v151.984356h-122.379378z" fill="#39BE3F" p-id="1550"></path><path d="M920.826311 1024H103.378489a63.715556 63.715556 0 0 1-63.715556-63.715556V312.183467h944.696889v648.146489A63.715556 63.715556 0 0 1 920.826311 1024z" fill="#39BE3F" p-id="1551"></path><path d="M984.359822 312.206222c-60.802844-15.655822-107.997867-40.800711-108.225422-77.824-0.113778-23.187911 22.505244-50.972444 60.575289-74.046578l-429.215289 0.227556-422.343111-0.227556C122.515911 183.296 145.954133 211.194311 145.840356 234.382222c-0.227556 36.909511-46.512356 62.0544-106.154667 77.824z" fill="#694B4B" p-id="1552"></path><path d="M233.244444 559.627378a72.817778 72.817778 0 1 0 72.817778-72.817778 72.817778 72.817778 0 0 0-72.817778 72.817778z" fill="#72D175" p-id="1553"></path><path d="M736.392533 559.741156a72.817778 72.817778 0 1 0 72.817778-72.817778 72.817778 72.817778 0 0 0-72.817778 72.817778z" fill="#72D175" p-id="1554"></path><path d="M837.609244 543.698489h-56.888888v-170.666667a134.030222 134.030222 0 0 0-3.322312-24.462222 155.693511 155.693511 0 0 1-4.232533-36.408889h56.888889a245.3504 245.3504 0 0 1 7.532089 60.916622z m-507.153066 0h-56.888889v-170.666667a199.315911 199.315911 0 0 1 4.346311-36.795733 147.911111 147.911111 0 0 0 3.208533-24.120889h56.888889a340.900978 340.900978 0 0 0-7.418311 60.916622v170.666667z" fill="#72D175" p-id="1555"></path><path d="M187.642311 559.627378a72.817778 72.817778 0 1 0 72.817778-72.817778 72.817778 72.817778 0 0 0-72.817778 72.817778z" fill="#FFFFFF" p-id="1556"></path><path d="M690.904178 559.741156a72.817778 72.817778 0 1 0 72.817778-72.817778 72.817778 72.817778 0 0 0-72.817778 72.817778z" fill="#FFFFFF" p-id="1557"></path><path d="M763.6992 572.165689a28.376178 28.376178 0 0 1-28.444444-28.444445v-170.666666a225.120711 225.120711 0 1 0-450.241423 0v170.666666a28.444444 28.444444 0 1 1-56.888889 0v-170.666666a282.032356 282.032356 0 0 1 564.041956 0v170.666666a28.535467 28.535467 0 0 1-28.444444 28.444445z" fill="#FFF082" p-id="1558"></path><path d="M392.487822 681.187556H339.717689V641.046756h366.546489v40.1408h-51.928178l34.6112 24.075377a761.582933 761.582933 0 0 1-56.160711 71.338667h71.384178v40.163556H409.3952v36.408888A213.697422 213.697422 0 0 1 358.695822 1005.135644L317.735822 983.972978c37.569422-47.286044 46.876444-74.729244 46.876445-141.903645V776.6016h49.834666C400.520533 757.100089 369.709511 719.598933 359.150933 708.221156z m26.168889 95.414044H457.910044V681.187556H394.990933a4032.739556 4032.739556 0 0 0 56.615823 67.151644z m86.152533 0h40.118045V681.187556H504.809244zM652.242489 681.187556h-59.574045v95.414044h38.843734l-34.133334-26.578489c16.907378-19.433244 42.257067-50.289778 54.931912-68.835555" fill="#FFFFFF" p-id="1559"></path></svg>