<?xml version="1.0" standalone="no"?><!DOCTYPE svg PUBLIC "-//W3C//DTD SVG 1.1//EN" "http://www.w3.org/Graphics/SVG/1.1/DTD/svg11.dtd"><svg t="1726811803452" class="icon" viewBox="0 0 1024 1024" version="1.1" xmlns="http://www.w3.org/2000/svg" p-id="1390" xmlns:xlink="http://www.w3.org/1999/xlink" width="64" height="64"><path d="M888.4 376.9l-332-293.8c-25.2-22.2-62.9-22.4-88.3-0.5l-0.5 0.5-333.1 293.8c-14.4 12.8-22.8 31-22.8 50.3v464.4c0 37 30.1 67.1 67.1 67.1h664.9c37 0 67.1-30.1 67.1-67.1V427.2c0.1-19.3-8.2-37.5-22.4-50.3z m-41.7 517.6H176V425.9l0.9-0.9 334.9-295.5 334.8 296.3v468.7z" fill="#434655" p-id="1391"></path><path d="M511.4 814.6c-16 0-29-13.1-29-29v-210c0-16 13.1-29 29-29 16 0 29 13.1 29 29v210.1c0 15.9-13.1 28.9-29 28.9z" fill="#E3742E" p-id="1392"></path></svg>